<?xml version="1.0" standalone="no"?>
<!DOCTYPE svg PUBLIC "-//W3C//DTD SVG 20010904//EN"
 "http://www.w3.org/TR/2001/REC-SVG-20010904/DTD/svg10.dtd">
<svg version="1.0" xmlns="http://www.w3.org/2000/svg"
 width="1024.000000pt" height="1024.000000pt" viewBox="0 0 1024.000000 1024.000000"
 preserveAspectRatio="xMidYMid meet">

<g transform="translate(0.000000,1024.000000) scale(0.100000,-0.100000)"
fill="white" stroke="none">
<path d="M3920 7660 c-142 -17 -246 -124 -258 -265 -3 -43 0 -78 11 -110 17
-49 104 -205 245 -440 46 -77 133 -222 193 -323 60 -101 116 -194 125 -207 15
-22 14 -23 -83 -75 -279 -149 -487 -323 -702 -589 -339 -419 -506 -947 -471
-1491 36 -548 258 -1029 665 -1435 66 -67 154 -146 196 -177 414 -308 826
-449 1308 -449 205 0 251 4 398 32 220 43 381 98 579 199 748 381 1214 1142
1214 1981 0 335 -65 609 -220 924 -217 444 -523 757 -1002 1029 -27 15 -48 29
-48 32 0 3 9 18 19 33 32 45 503 842 536 906 39 78 42 175 7 247 -32 64 -94
125 -155 153 l-52 23 -1225 4 c-674 2 -1250 1 -1280 -2z m400 -576 c0 -211 -3
-275 -12 -272 -21 7 -318 513 -318 542 0 3 74 6 165 6 l165 0 0 -276z m1380
-192 c0 -258 -2 -471 -5 -474 -3 -3 -51 5 -108 18 -275 61 -634 57 -894 -10
-34 -9 -64 -16 -67 -16 -3 0 -6 214 -6 475 l0 475 540 0 540 0 0 -468z m626
452 c-11 -27 -297 -508 -312 -524 -12 -12 -14 22 -14 263 l0 277 166 0 c147 0
165 -2 160 -16z m-927 -1179 c462 -67 879 -302 1191 -670 312 -369 479 -866
442 -1318 -32 -378 -161 -722 -380 -1007 -84 -109 -273 -298 -380 -379 -629
-477 -1400 -519 -2072 -113 -302 182 -569 477 -735 810 -241 484 -245 1087
-11 1586 180 386 532 740 920 929 146 71 373 138 546 162 133 18 352 18 479 0z"/>
<path d="M4975 5890 c-102 -12 -309 -64 -405 -102 -210 -83 -381 -197 -550
-368 -130 -131 -215 -249 -290 -405 -101 -206 -149 -378 -168 -595 -22 -242
21 -519 114 -741 223 -531 673 -891 1232 -984 127 -21 409 -17 547 9 191 36
440 138 600 246 93 63 224 181 308 277 254 292 396 677 397 1077 1 482 -252
976 -655 1279 -145 108 -370 217 -545 262 -173 45 -419 64 -585 45z m375 -314
c406 -62 781 -341 975 -725 175 -348 164 -830 -27 -1175 -70 -126 -88 -152
-159 -233 -305 -348 -734 -513 -1164 -448 -267 40 -510 163 -713 359 -150 145
-250 296 -321 486 -58 155 -75 255 -75 445 0 239 37 394 141 596 132 257 346
467 597 584 112 53 226 90 331 109 106 19 297 19 415 2z"/>
<path d="M5087 5025 c-76 -26 -109 -75 -150 -216 -51 -175 -63 -183 -263 -184
-138 0 -141 0 -189 -30 -67 -42 -98 -100 -93 -177 5 -72 41 -120 159 -212 125
-97 144 -119 142 -164 -1 -20 -15 -81 -32 -136 -17 -55 -31 -121 -31 -149 0
-105 84 -187 191 -187 59 0 91 15 169 80 133 111 192 108 345 -15 22 -18 54
-40 72 -49 78 -39 202 0 248 78 35 60 33 121 -11 264 -35 116 -35 117 -18 150
10 18 73 78 141 133 68 55 130 114 139 132 43 83 6 202 -80 252 -40 23 -52 25
-175 25 -212 0 -227 13 -295 242 -23 75 -32 91 -68 122 -63 55 -128 68 -201
41z"/>
</g>
</svg>
