<?xml version="1.0" standalone="no"?>
<!DOCTYPE svg PUBLIC "-//W3C//DTD SVG 20010904//EN"
 "http://www.w3.org/TR/2001/REC-SVG-20010904/DTD/svg10.dtd">
<svg version="1.0" xmlns="http://www.w3.org/2000/svg"
 width="1024.000000pt" height="1024.000000pt" viewBox="0 0 1024.000000 1024.000000"
 preserveAspectRatio="xMidYMid meet">

<g transform="translate(0.000000,1024.000000) scale(0.100000,-0.100000)"
fill="white" stroke="none">
<path d="M6263 7869 c-77 -14 -145 -66 -186 -143 -21 -38 -22 -58 -27 -316
l-5 -275 -1202 -3 -1203 -2 0 263 c0 291 -5 322 -61 390 -17 21 -53 49 -80 62
-47 24 -54 25 -267 25 -245 0 -263 -4 -333 -67 -45 -41 -74 -91 -84 -146 l-7
-37 -73 0 c-102 0 -133 -8 -170 -46 -24 -24 -36 -46 -40 -79 l-7 -45 -177 0
c-197 0 -241 -9 -303 -60 -49 -41 -79 -107 -83 -182 l-4 -61 -65 -17 c-123
-31 -160 -90 -161 -255 0 -96 3 -116 23 -152 29 -55 85 -92 149 -100 l51 -6 7
-71 c8 -87 22 -122 66 -165 64 -64 92 -71 305 -71 l192 0 6 -44 c14 -93 66
-126 196 -126 78 0 91 -3 96 -17 26 -84 83 -152 155 -182 48 -21 63 -22 272
-19 215 3 223 4 267 28 52 29 105 95 120 148 5 21 10 145 10 285 l0 247 1205
0 1205 0 0 -257 c0 -228 3 -263 19 -298 28 -61 70 -105 126 -131 48 -23 60
-24 275 -24 216 0 227 1 275 24 68 32 115 84 130 143 l12 48 59 5 c32 3 69 11
81 18 26 14 63 88 63 125 l0 27 148 0 c136 0 153 2 193 23 62 33 109 112 109
183 0 28 3 66 6 83 l7 31 83 0 c93 0 126 9 168 48 50 47 66 96 66 203 0 107
-12 149 -57 191 -43 41 -94 58 -175 58 -40 0 -78 4 -84 8 -5 4 -11 39 -11 78
-1 77 -17 119 -62 167 -50 54 -74 61 -236 67 l-150 5 -7 43 c-13 80 -63 122
-144 122 l-51 0 -7 41 c-13 79 -63 147 -135 183 -42 22 -61 24 -246 28 -110 2
-219 1 -242 -3z m-2848 -214 l25 -24 0 -736 c0 -722 0 -735 -20 -755 -18 -18
-33 -20 -197 -20 -150 0 -179 2 -195 17 -17 15 -18 52 -18 759 l0 743 26 20
c25 19 40 21 191 21 161 0 164 0 188 -25z m3257 -5 l30 -30 -4 -735 c-2 -585
-6 -737 -16 -747 -9 -9 -63 -14 -197 -16 -170 -3 -185 -2 -203 16 -17 17 -19
41 -25 258 -3 131 -5 464 -3 738 l3 499 27 24 c26 22 34 23 192 23 l166 0 30
-30z m-3867 -697 l0 -473 -137 0 -138 0 0 475 0 476 138 -3 137 -3 0 -472z
m4275 -3 l0 -470 -90 0 -90 0 0 470 0 470 90 0 90 0 0 -470z m-4752 -72 l-3
-383 -57 -3 c-61 -3 -110 14 -127 46 -5 10 -13 159 -17 333 -9 393 -10 388
129 389 l77 0 -2 -382z m5002 -3 l0 -385 -30 0 -30 0 0 385 0 385 30 0 30 0 0
-385z m-3560 10 c0 -65 0 -65 -28 -65 -28 0 -29 2 -31 55 -2 65 2 75 35 75 23
0 24 -3 24 -65z m200 0 l0 -65 -35 0 -35 0 0 65 0 65 35 0 35 0 0 -65z m1608
41 c2 -10 1 -38 -3 -62 l-6 -44 -740 0 -739 0 0 65 0 65 742 -2 c716 -3 743
-4 746 -22z m2084 7 c37 -33 11 -113 -38 -113 -23 0 -24 3 -24 65 0 60 2 65
22 65 12 0 30 -7 40 -17z m-5712 -47 c0 -40 -4 -55 -16 -60 -27 -10 -34 3 -34
60 0 51 1 54 25 54 24 0 25 -3 25 -54z m3830 -6 l0 -60 -43 0 -44 0 -2 60 -2
60 45 0 46 0 0 -60z m180 0 l0 -60 -30 0 -30 0 0 60 0 60 30 0 30 0 0 -60z"/>
<path d="M4815 6130 c-167 -12 -273 -56 -392 -164 -74 -68 -144 -169 -179
-262 -32 -83 -44 -243 -25 -321 12 -45 56 -156 223 -556 l70 -169 -53 -46
c-170 -147 -268 -299 -335 -518 -26 -84 -28 -100 -28 -284 0 -170 3 -205 22
-274 65 -234 234 -478 422 -608 24 -16 -21 -17 -807 -17 l-833 -1 0 154 0 155
328 3 c320 3 328 4 380 27 154 69 224 272 150 432 -14 32 -44 75 -66 97 l-40
40 40 38 c22 22 52 62 66 89 23 43 27 62 27 135 -1 65 -6 96 -22 132 -29 65
-98 137 -158 164 -49 23 -55 24 -377 24 l-327 0 -3 548 c-3 539 -3 548 -25
587 -47 89 -114 127 -232 133 -117 6 -178 -9 -237 -61 -87 -77 -84 -49 -84
-658 l0 -536 -38 -7 c-20 -3 -165 -6 -322 -6 l-285 0 -60 -28 c-68 -33 -127
-93 -158 -161 -16 -35 -21 -66 -21 -126 1 -97 23 -153 88 -223 l45 -48 -44
-43 c-70 -69 -90 -119 -90 -226 0 -78 4 -97 27 -140 32 -62 103 -129 166 -158
45 -21 64 -22 369 -25 l323 -3 0 -155 0 -154 -409 0 -409 0 -30 -25 c-36 -30
-47 -66 -32 -110 23 -71 -195 -65 2405 -65 l2347 0 29 29 c23 23 29 38 29 71
0 33 -6 48 -29 71 l-29 29 -214 0 c-191 1 -211 2 -193 16 156 115 271 249 345
399 154 314 155 645 4 952 -56 113 -116 194 -227 301 l-86 84 133 321 c74 177
141 347 150 376 20 68 21 207 1 281 -46 172 -184 340 -345 418 -141 69 -166
73 -520 77 -173 2 -364 0 -425 -5z m746 -304 c139 -42 234 -144 259 -277 12
-63 2 -111 -49 -232 -22 -51 -78 -184 -125 -296 -48 -113 -88 -206 -89 -208
-2 -1 -30 8 -62 22 -186 74 -458 74 -662 0 l-64 -23 -9 22 c-4 11 -26 62 -48
111 -21 50 -77 182 -123 295 -79 192 -84 209 -83 275 0 56 6 82 29 128 46 92
133 163 230 187 17 5 192 8 390 9 283 1 370 -2 406 -13z m-2863 -378 c7 -7 12
-34 12 -60 l0 -48 -105 0 -105 0 0 48 c0 26 5 53 12 60 7 7 43 12 93 12 50 0
86 -5 93 -12z m12 -643 l0 -395 -105 0 -105 0 0 395 0 395 105 0 105 0 0 -395z
m2584 -174 c44 -11 92 -52 100 -87 9 -35 -18 -90 -53 -108 -19 -10 -56 -16
-105 -16 -192 0 -334 -57 -462 -184 -100 -100 -148 -191 -168 -313 -16 -98
-33 -128 -85 -144 -46 -14 -83 0 -115 44 -42 57 -14 233 60 386 41 84 59 108
148 196 148 147 278 210 466 225 126 10 171 11 214 1z m-1768 -440 c89 -54 72
-207 -26 -236 -14 -4 -37 -20 -52 -36 l-27 -29 -796 0 -797 0 -69 36 c-73 39
-105 73 -115 122 -13 62 31 133 92 152 16 4 418 9 894 9 835 1 866 0 896 -18z
m-11 -515 c15 -10 36 -38 47 -63 26 -59 18 -105 -27 -150 l-33 -33 -886 0
c-938 0 -918 -1 -955 44 -20 24 -30 84 -20 121 11 40 59 91 92 99 12 2 412 4
888 2 814 -2 868 -3 894 -20z m-807 -606 l-3 -151 -100 -2 -100 -2 -3 153 -3
152 106 0 106 0 -3 -150z"/>
<path d="M7285 5553 c-214 -28 -399 -186 -462 -395 -9 -29 -16 -84 -16 -123 1
-70 30 -179 138 -514 l34 -104 -60 -65 c-115 -126 -196 -273 -240 -438 -17
-63 -22 -109 -22 -224 -1 -162 18 -262 72 -390 54 -126 169 -283 261 -356 l43
-34 -141 0 c-88 0 -151 -4 -167 -12 -29 -13 -55 -55 -55 -88 0 -29 27 -77 49
-90 13 -7 356 -10 1029 -10 l1009 0 27 26 c38 39 37 105 -3 145 l-29 29 -226
0 -226 0 47 43 c141 128 236 285 282 464 87 342 14 645 -223 917 l-66 75 16
43 c8 24 47 147 86 273 62 201 71 240 72 310 1 244 -199 477 -444 515 -61 9
-718 12 -785 3z m770 -292 c93 -42 165 -134 165 -210 0 -27 -20 -110 -49 -201
-27 -85 -57 -181 -67 -213 -14 -44 -22 -57 -34 -53 -8 3 -60 21 -115 40 -135
48 -272 64 -402 47 -109 -14 -218 -43 -275 -72 -22 -11 -41 -19 -43 -17 -7 8
-125 408 -131 444 -8 54 28 127 91 182 79 69 87 70 475 71 313 1 349 -1 385
-18z m-275 -818 c65 -45 80 -113 36 -158 -28 -28 -38 -30 -165 -44 -80 -9
-108 -17 -190 -57 -168 -82 -303 -242 -340 -404 -6 -25 -11 -86 -11 -137 0
-103 -11 -138 -51 -159 -47 -24 -85 -18 -127 20 l-37 35 2 119 c3 151 22 245
73 350 50 104 84 153 152 220 155 151 338 229 543 231 70 1 96 -3 115 -16z"/>
</g>
</svg>
