<?xml version="1.0" standalone="no"?>
<!DOCTYPE svg PUBLIC "-//W3C//DTD SVG 20010904//EN"
 "http://www.w3.org/TR/2001/REC-SVG-20010904/DTD/svg10.dtd">
<svg version="1.0" xmlns="http://www.w3.org/2000/svg"
 width="1024.000000pt" height="1024.000000pt" viewBox="0 0 1024.000000 1024.000000"
 preserveAspectRatio="xMidYMid meet">

<g transform="translate(0.000000,1024.000000) scale(0.100000,-0.100000)"
fill="white" stroke="none">
<path d="M2315 8641 c-309 -56 -565 -214 -756 -468 -121 -160 -193 -316 -229
-494 -20 -95 -20 -141 -20 -2597 0 -2727 -3 -2574 56 -2757 40 -121 78 -198
151 -309 200 -301 503 -485 866 -525 133 -15 5507 -15 5627 -1 144 18 277 57
395 114 132 65 191 108 309 224 203 200 326 463 356 759 8 76 10 841 8 2563
l-4 2455 -21 85 c-49 195 -118 342 -233 495 -104 139 -216 234 -386 329 -107
60 -172 85 -304 119 l-85 21 -2815 2 c-2665 2 -2820 2 -2915 -15z m5730 -499
c138 -38 219 -85 316 -182 73 -72 94 -101 132 -180 25 -52 50 -119 56 -148 8
-37 11 -798 11 -2560 0 -2789 6 -2553 -70 -2707 -69 -142 -173 -248 -305 -313
-134 -67 108 -62 -2995 -62 -2022 0 -2824 3 -2858 11 -26 6 -89 31 -141 56
-79 38 -108 59 -170 122 -122 123 -180 242 -202 411 -6 48 -9 954 -7 2535 3
2309 4 2464 21 2520 67 232 243 417 467 491 51 17 114 19 780 24 399 3 1661 5
2805 5 l2080 0 80 -23z"/>
<path d="M7525 7589 c-165 -49 -363 -107 -440 -130 -223 -65 -260 -78 -299
-107 -135 -102 -151 -286 -34 -401 86 -85 184 -98 322 -42 43 17 81 29 84 26
3 -3 -46 -58 -109 -122 -63 -65 -235 -243 -383 -395 -155 -160 -283 -284 -304
-294 -49 -23 -98 -15 -217 36 -84 37 -113 44 -182 48 -103 6 -194 -20 -283
-80 -56 -37 -455 -432 -821 -811 -174 -181 -167 -181 -461 6 -253 161 -315
187 -444 187 -154 0 -256 -43 -400 -169 -97 -84 -381 -350 -589 -551 -342
-330 -477 -453 -524 -477 -149 -74 -195 -280 -90 -406 49 -59 120 -91 204 -91
117 0 137 14 404 277 230 227 800 773 872 835 61 53 118 65 184 37 19 -8 106
-60 193 -117 220 -143 341 -204 425 -213 85 -9 172 6 256 45 60 28 98 64 441
413 206 210 411 420 455 465 82 86 135 122 179 122 13 0 62 -18 108 -40 145
-69 236 -83 356 -55 145 34 147 36 649 541 254 255 464 464 468 464 3 0 3 -40
-1 -88 -6 -76 -4 -95 13 -133 46 -103 130 -159 239 -159 104 0 182 45 229 131
26 49 28 62 36 228 9 192 34 585 49 777 8 98 7 131 -5 170 -18 62 -67 121
-119 145 -76 34 -133 26 -461 -72z"/>
<path d="M6605 5221 c-22 -10 -53 -31 -69 -47 -16 -16 -37 -47 -47 -69 -18
-38 -19 -92 -19 -1062 l0 -1023 -225 0 -225 0 0 628 c0 702 2 673 -73 739 -61
54 -88 58 -357 58 l-245 0 -46 -27 c-25 -15 -59 -46 -75 -69 l-29 -42 -3 -643
-3 -642 -102 -4 c-57 -1 -160 -2 -230 0 l-126 4 -3 476 -3 477 -28 47 c-18 31
-44 57 -75 75 l-47 28 -260 0 c-260 0 -261 0 -310 -26 -30 -15 -62 -42 -80
-68 l-30 -43 -3 -484 -3 -484 -184 -2 c-102 -1 -200 -2 -217 -2 l-33 -1 -6
155 c-6 169 -16 205 -76 262 -56 54 -81 58 -341 58 -270 0 -305 -6 -366 -67
-52 -53 -66 -109 -66 -275 l0 -138 -56 0 c-83 0 -133 -19 -186 -70 -55 -54
-84 -134 -74 -205 10 -65 63 -144 120 -180 l49 -30 2736 0 2736 0 45 25 c94
53 145 166 120 269 -16 66 -63 129 -120 161 -45 25 -47 25 -355 30 l-310 5 -5
1030 -5 1030 -22 42 c-13 23 -39 54 -58 69 -64 49 -92 53 -340 53 -202 1 -235
-2 -270 -18z"/>
</g>
</svg>
