<?xml version="1.0" standalone="no"?>
<!DOCTYPE svg PUBLIC "-//W3C//DTD SVG 20010904//EN"
 "http://www.w3.org/TR/2001/REC-SVG-20010904/DTD/svg10.dtd">
<svg version="1.0" xmlns="http://www.w3.org/2000/svg"
 width="1000.000000pt" height="1000.000000pt" viewBox="0 0 1000.000000 1000.000000"
 preserveAspectRatio="xMidYMid meet">

<g transform="translate(0.000000,1000.000000) scale(0.100000,-0.100000)"
fill="white" stroke="none">
<path d="M1958 8829 c-73 -38 -68 93 -68 -1626 0 -1518 0 -1549 20 -1580 52
-87 189 -86 254 0 21 28 21 35 24 738 l3 709 272 0 273 0 38 -82 c46 -99 188
-411 395 -868 145 -318 191 -431 191 -464 0 -8 28 -48 62 -88 177 -211 590
-913 752 -1282 62 -140 -26 -127 840 -124 l738 3 27 32 c15 18 42 69 61 115
64 157 176 363 379 698 211 348 308 496 374 567 26 29 45 64 61 115 23 73 127
308 356 808 67 146 151 330 187 410 37 80 71 148 77 152 6 5 133 7 281 5 l270
-2 1 -708 c1 -686 2 -709 21 -735 36 -49 69 -66 127 -66 64 -1 101 21 128 75
17 32 18 128 18 1575 l0 1541 -23 34 c-27 41 -79 69 -126 69 -41 0 -116 -34
-128 -58 -4 -9 -10 -345 -13 -747 l-5 -730 -277 -3 -278 -2 0 95 c0 60 -5 108
-14 130 -28 67 -119 83 -172 30 -20 -20 -24 -34 -24 -85 0 -57 -1 -60 -25 -60
-24 0 -25 3 -25 59 0 47 -4 63 -24 84 -32 34 -84 44 -124 23 -40 -20 -48 -37
-57 -108 -6 -48 -11 -58 -26 -58 -16 0 -19 8 -19 54 0 63 -23 99 -75 116 -42
14 -92 1 -121 -31 -16 -17 -20 -41 -23 -135 l-3 -114 -1537 2 -1536 3 -5 113
c-5 109 -6 115 -33 138 -31 26 -92 33 -129 13 -26 -14 -48 -68 -48 -119 0 -36
-2 -40 -25 -40 -24 0 -25 3 -25 56 0 48 -4 59 -29 85 -23 23 -38 29 -71 29
-23 0 -50 -5 -62 -11 -26 -14 -48 -68 -48 -119 0 -33 -3 -40 -20 -40 -17 0
-20 7 -20 45 0 52 -21 99 -49 115 -26 13 -97 13 -123 -1 -33 -18 -48 -70 -48
-174 l0 -95 -270 0 -269 0 -3 723 c-3 677 -4 725 -21 750 -43 65 -135 86 -209
46z m4555 -1783 c-2 -27 10 -42 117 -152 l91 -95 -34 -62 c-82 -147 -417 -816
-432 -862 -11 -33 -34 -68 -69 -105 -56 -58 -167 -190 -404 -483 -219 -271
-307 -353 -452 -421 -116 -55 -187 -70 -325 -70 -143 0 -200 12 -320 69 -172
81 -230 136 -535 515 -109 135 -241 295 -294 355 -53 61 -96 116 -96 123 0 14
-161 338 -325 657 -57 110 -111 219 -120 242 l-17 43 101 108 c57 62 101 118
101 129 0 11 3 23 7 26 3 4 682 6 1507 5 1480 -3 1501 -3 1499 -22z"/>
<path d="M4873 6085 c-202 -55 -341 -212 -373 -423 -24 -151 43 -337 161 -450
93 -90 262 -150 384 -137 130 13 263 79 341 168 54 62 111 189 122 275 30 213
-77 422 -267 525 -100 55 -254 72 -368 42z"/>
<path d="M1529 8521 c-46 -15 -69 -31 -84 -61 -13 -26 -15 -178 -13 -1289 l3
-1259 25 -27 c57 -61 139 -73 202 -30 73 50 69 -35 66 1340 l-3 1230 -22 36
c-12 19 -34 41 -48 47 -36 17 -95 23 -126 13z"/>
<path d="M8363 8511 c-79 -36 -73 70 -73 -1327 0 -1168 1 -1249 18 -1277 26
-45 65 -69 119 -74 65 -6 111 20 141 77 l22 44 0 1226 c0 1192 -1 1226 -20
1268 -33 73 -123 101 -207 63z"/>
<path d="M1040 8162 c-74 -39 -70 15 -70 -960 0 -926 -1 -912 46 -954 11 -9
40 -22 66 -29 42 -12 53 -11 95 7 29 12 56 32 70 53 l23 34 0 886 c0 871 0
887 -20 919 -37 60 -139 81 -210 44z"/>
<path d="M8824 8169 c-16 -5 -41 -20 -55 -35 l-24 -26 -3 -896 c-2 -875 -2
-898 17 -929 29 -47 66 -67 125 -67 63 -1 103 18 133 63 l23 34 -2 893 -3 892
-25 27 c-46 50 -112 66 -186 44z"/>
<path d="M594 7719 c-17 -5 -43 -21 -58 -35 l-26 -27 0 -172 0 -173 -123 -3
c-142 -5 -169 -16 -188 -78 -15 -51 5 -116 44 -145 24 -18 46 -21 148 -24
l119 -4 0 -154 c0 -174 8 -202 63 -231 19 -10 54 -17 87 -17 33 0 68 7 87 17
63 34 63 30 63 519 0 416 -1 445 -19 474 -34 55 -115 77 -197 53z"/>
<path d="M9271 7717 c-22 -8 -41 -24 -53 -47 -17 -33 -18 -61 -16 -488 l3
-454 37 -33 c63 -58 153 -56 221 5 l32 28 5 169 5 168 98 -3 c55 -2 114 2 133
8 48 16 74 57 74 119 0 42 -5 56 -29 83 l-29 33 -126 3 -126 4 0 160 c0 183
-7 205 -75 238 -46 22 -103 25 -154 7z"/>
<path d="M4294 3945 c-19 -19 -24 -32 -20 -53 43 -206 66 -510 74 -1007 l7
-380 -45 -50 c-26 -27 -73 -81 -105 -120 -33 -38 -96 -110 -140 -160 -44 -50
-136 -157 -205 -239 -69 -82 -158 -188 -198 -235 l-73 -86 -798 -5 c-750 -5
-799 -6 -825 -23 -70 -46 -65 -142 9 -184 l40 -23 2830 3 c2423 2 2833 4 2851
16 54 36 69 109 32 156 -43 55 -45 55 -588 55 l-500 0 0 36 c0 32 76 858 126
1369 16 159 16 174 0 235 -21 83 -67 151 -131 195 -67 45 -117 58 -211 54
l-79 -4 -575 -290 c-316 -160 -704 -355 -862 -435 l-288 -144 -27 20 c-57 42
-65 103 -22 159 13 16 166 98 422 226 450 225 664 336 672 349 3 5 14 95 25
202 11 106 24 220 30 253 14 83 13 92 -10 115 -20 20 -33 20 -705 20 l-686 0
-25 -25z m1835 -1332 c-4 -43 -15 -179 -23 -303 -25 -351 -47 -632 -52 -667
l-5 -33 -750 0 -750 0 58 73 c33 39 92 115 133 167 120 155 194 240 208 240 8
0 53 13 101 29 59 20 243 115 581 300 272 149 497 271 501 271 3 0 2 -35 -2
-77z"/>
</g>
</svg>
